<svg id="Capa_1" enable-background="new 0 0 512 512" height="512" viewBox="0 0 512 512" width="512" xmlns="http://www.w3.org/2000/svg"><g><path d="m358.4 472.533h-204.8v31.467c0 4.418 3.582 8 8 8h188.8c4.418 0 8-3.582 8-8z" fill="#bbe6a9"/><path d="m333.867 472.533v30.933c0 4.713-3.82 8.533-8.533 8.533h24.533c4.713 0 8.533-3.82 8.533-8.533v-30.933z" fill="#9edaab"/><path d="m409.6 187.733-15.177 258.004c-1.061 18.042-16.002 32.129-34.075 32.129h-208.697c-18.073 0-33.013-14.087-34.075-32.129l-15.176-258.004v-9.125h307.2z" fill="#9ed9ae"/><path d="m385.067 178.608v9.126l-15.177 258.004c-1.061 18.042-16.001 32.129-34.074 32.129h24.533c18.073 0 33.013-14.087 34.074-32.129l15.177-258.005v-9.126h-24.533z" fill="#81c8ac"/><path d="m409.6 119.467v5.333h-307.2v-5.333l27.06-94.711c4.187-14.653 17.58-24.756 32.82-24.756h187.44c15.24 0 28.633 10.103 32.82 24.756z" fill="#9ed9ae"/><path d="m382.54 24.756c-4.187-14.653-17.58-24.756-32.82-24.756h-24.533c15.24 0 28.633 10.103 32.82 24.756l27.06 94.711v5.333h24.533v-5.333z" fill="#81c8ac"/><path d="m358.4 119.467v5.333h-204.8v-5.333l14.323-71.614c1.596-7.977 8.6-13.72 16.735-13.72h142.684c8.135 0 15.14 5.742 16.735 13.72z" fill="#5a5a5a"/><g><g><path d="m292.061 400.533h-18.994c-4.419 0-8-3.581-8-8s3.581-8 8-8h18.994c3.593 0 5.444-2.368 6.073-3.385.629-1.018 1.919-3.732.313-6.946l-6.113-12.224c-1.976-3.952-.375-8.757 3.577-10.733 3.954-1.974 8.757-.374 10.733 3.577l6.112 12.224c3.613 7.226 3.234 15.642-1.012 22.514-4.246 6.871-11.605 10.973-19.683 10.973z" fill="#f2f9ff"/></g><g><path d="m282.432 332.275c-2.935 0-5.76-1.621-7.161-4.424l-12.885-25.771c-1.781-3.562-5.058-3.947-6.385-3.947-1.326 0-4.604.384-6.385 3.947l-12.882 25.765c-1.975 3.953-6.782 5.556-10.732 3.578-3.952-1.976-5.554-6.781-3.578-10.732l12.882-25.766c3.945-7.891 11.875-12.792 20.696-12.792s16.751 4.901 20.696 12.791l12.885 25.771c1.976 3.952.374 8.757-3.577 10.733-1.151.574-2.372.847-3.574.847z" fill="#f2f9ff"/></g><g><path d="m238.933 400.533h-18.994c-8.078 0-15.436-4.102-19.683-10.974s-4.625-15.288-1.012-22.514l6.111-12.223c1.975-3.952 6.78-5.555 10.733-3.577 3.951 1.976 5.553 6.781 3.577 10.733l-6.111 12.223c-1.606 3.214-.317 5.928.312 6.946s2.48 3.385 6.073 3.385h18.994c4.419 0 8 3.581 8 8 0 4.42-3.581 8.001-8 8.001z" fill="#f2f9ff"/></g></g><path d="m344.077 47.853c-1.596-7.977-8.6-13.72-16.735-13.72h-24.533c8.135 0 15.14 5.742 16.736 13.72l14.323 71.614v5.333h24.532v-5.333z" fill="#464646"/><path d="m102.4 119.467c-9.426 0-17.067 7.641-17.067 17.067v34.133c0 9.426 7.641 17.067 17.067 17.067h307.2c9.426 0 17.067-7.641 17.067-17.067v-34.133c0-9.426-7.641-17.067-17.067-17.067z" fill="#bbe6a9"/><path d="m409.6 119.467h-24.533c9.426 0 17.067 7.641 17.067 17.067v34.133c0 9.426-7.641 17.067-17.067 17.067h24.533c9.426 0 17.067-7.641 17.067-17.067v-34.133c0-9.426-7.641-17.067-17.067-17.067z" fill="#9edaab"/><path d="m407.122 229.866.941-16h-304.126l.941 16z" fill="#81c8ac"/></g></svg>